<?xml version="1.0" encoding="UTF-8" standalone="no"?>
<svg
   xmlns:osb="http://www.openswatchbook.org/uri/2009/osb"
   xmlns:dc="http://purl.org/dc/elements/1.1/"
   xmlns:cc="http://creativecommons.org/ns#"
   xmlns:rdf="http://www.w3.org/1999/02/22-rdf-syntax-ns#"
   xmlns:svg="http://www.w3.org/2000/svg"
   xmlns="http://www.w3.org/2000/svg"
   xmlns:sodipodi="http://sodipodi.sourceforge.net/DTD/sodipodi-0.dtd"
   xmlns:inkscape="http://www.inkscape.org/namespaces/inkscape"
   version="1.1"
   id="Capa_1"
   x="0px"
   y="0px"
   width="42.893px"
   height="42.893px"
   viewBox="0 0 42.893 42.893"
   style="enable-background:new 0 0 42.893 42.893;"
   xml:space="preserve"
   sodipodi:docname="open-email.svg"
   inkscape:version="1.0.2 (e86c870879, 2021-01-15)"><metadata
   id="metadata41"><rdf:RDF><cc:Work
       rdf:about=""><dc:format>image/svg+xml</dc:format><dc:type
         rdf:resource="http://purl.org/dc/dcmitype/StillImage" /></cc:Work></rdf:RDF></metadata><defs
   id="defs39"><linearGradient
     id="linearGradient2821"
     osb:paint="solid"><stop
       style="stop-color:#3880ff;stop-opacity:1;"
       offset="0"
       id="stop2819" /></linearGradient></defs><sodipodi:namedview
   pagecolor="#ffffff"
   bordercolor="#666666"
   borderopacity="1"
   objecttolerance="10"
   gridtolerance="10"
   guidetolerance="10"
   inkscape:pageopacity="0"
   inkscape:pageshadow="2"
   inkscape:window-width="1920"
   inkscape:window-height="1016"
   id="namedview37"
   showgrid="false"
   inkscape:zoom="20.096519"
   inkscape:cx="21.446501"
   inkscape:cy="21.446501"
   inkscape:window-x="0"
   inkscape:window-y="27"
   inkscape:window-maximized="1"
   inkscape:current-layer="Capa_1"
   inkscape:document-rotation="0" />
<g
   id="g4">
	<path
   d="M41.777,15.04c-0.316-0.212-0.679-0.335-1.047-0.386V3.894c0-1.381-1.119-2.5-2.5-2.5H4.657c-1.381,0-2.5,1.119-2.5,2.5   v10.762c-0.366,0.051-0.728,0.173-1.045,0.385C0.418,15.505,0,16.284,0,17.12v21.879c0,1.381,1.118,2.5,2.5,2.5h37.893   c1.381,0,2.5-1.119,2.5-2.5V17.12C42.89,16.284,42.472,15.505,41.777,15.04z M35.73,6.394v9.959L21.444,22.3L7.157,16.353V6.394   H35.73z M11.112,10.279c0-0.829,0.672-1.5,1.5-1.5h17.666c0.828,0,1.5,0.671,1.5,1.5s-0.672,1.5-1.5,1.5H12.612   C11.784,11.779,11.112,11.108,11.112,10.279z M11.112,15.446c0-0.829,0.672-1.5,1.5-1.5h17.666c0.828,0,1.5,0.671,1.5,1.5   c0,0.828-0.672,1.5-1.5,1.5H12.612C11.784,16.946,11.112,16.274,11.112,15.446z"
   id="path2" />
</g>
<g
   id="g6">
</g>
<g
   id="g8">
</g>
<g
   id="g10">
</g>
<g
   id="g12">
</g>
<g
   id="g14">
</g>
<g
   id="g16">
</g>
<g
   id="g18">
</g>
<g
   id="g20">
</g>
<g
   id="g22">
</g>
<g
   id="g24">
</g>
<g
   id="g26">
</g>
<g
   id="g28">
</g>
<g
   id="g30">
</g>
<g
   id="g32">
</g>
<g
   id="g34">
</g>
<path
   style="fill:#a0a0a0;stroke:none;stroke-width:0.0497599"
   d="M 2.2143139,41.448119 C 1.6055506,41.367466 1.0720133,41.088478 0.66872623,40.639925 0.42492201,40.368756 0.30066749,40.154169 0.13070304,39.710764 L 0.02487993,39.434691 0.01122246,28.388002 C 0.00246539,21.304947 0.01531635,17.180624 0.0470382,16.893473 0.16414927,15.833367 0.91785565,14.966684 1.9281947,14.730343 L 2.189434,14.669233 V 9.1364263 c 0,-6.0535948 -0.012287,-5.786223 0.2935373,-6.3875374 C 2.7786614,2.1675005 3.3003539,1.7338825 3.9499361,1.5295837 L 4.3042281,1.4181561 H 21.446501 c 16.492651,0 17.153587,0.00346 17.440832,0.091393 0.894543,0.2738327 1.604588,1.0448517 1.766535,1.9182329 0.03117,0.1681106 0.0497,2.3134432 0.0497,5.754741 v 5.48671 l 0.261239,0.06158 c 0.876127,0.206523 1.611615,0.94369 1.835036,1.839221 0.05686,0.227895 0.06828,2.155003 0.06828,11.519408 0,10.775084 -0.0038,11.258136 -0.09147,11.542163 -0.264524,0.857281 -0.833711,1.447104 -1.671417,1.732015 l -0.327029,0.111225 -19.132667,0.0064 c -10.522967,0.0035 -19.2670186,-0.01138 -19.4312261,-0.03314 z m 26.3727271,-22.089872 7.16542,-2.983757 0.01268,-5.002613 0.01268,-5.0026146 H 21.446501 7.1151841 l 0.012678,5.0043666 0.012678,5.004367 7.1405409,2.977533 c 3.927297,1.637644 7.14054,2.979545 7.14054,2.982004 0,0.0025 3.224439,-1.338221 7.16542,-2.979286 z"
   id="path866" /><path
   style="fill:#a0a0a0;stroke:none;stroke-width:0.0497599"
   d="m 12.240926,16.87209 c -0.615256,-0.189159 -1.032458,-0.700219 -1.082713,-1.326287 -0.03663,-0.456311 0.08558,-0.773215 0.431363,-1.118639 0.489318,-0.488802 -0.489612,-0.444643 9.856925,-0.444643 10.353522,0 9.366842,-0.04493 9.861301,0.44902 0.225357,0.225122 0.299595,0.34094 0.366867,0.572348 0.209358,0.720167 -0.09514,1.407293 -0.787618,1.777319 l -0.210096,0.112265 -9.155814,0.0084 c -5.035699,0.0046 -9.211795,-0.0088 -9.280215,-0.02981 z"
   id="path868" /><path
   style="fill:#2c6baf;stroke:#3880ff;stroke-width:0.0497599;fill-opacity:1;stroke-opacity:1"
   d="m 12.091895,11.656549 c -0.312147,-0.110141 -0.753756,-0.560799 -0.862293,-0.879963 -0.239061,-0.70298 0.0665,-1.4589202 0.731507,-1.8097261 l 0.254937,-0.1344843 h 9.230455 9.230454 l 0.22392,0.1173238 c 0.678258,0.355377 0.988059,1.0737806 0.767758,1.7803646 -0.07024,0.225283 -0.153883,0.354933 -0.367161,0.569112 -0.486394,0.488453 0.49528,0.444696 -9.876275,0.440223 -8.183434,-0.0035 -9.132372,-0.01195 -9.333302,-0.08285 z"
   id="path870" /><path
   style="fill:#2c6baf;stroke:#3880ff;stroke-width:0.0497599;fill-opacity:1;stroke-opacity:1"
   d="m 12.059949,16.772931 c -0.289524,-0.131469 -0.572711,-0.402438 -0.714932,-0.684086 -0.168438,-0.333569 -0.19676,-0.865193 -0.06217,-1.167015 0.140532,-0.315152 0.529311,-0.726147 0.749937,-0.792794 0.299185,-0.09038 3.619425,-0.139622 9.413718,-0.139622 5.770293,0 9.115003,0.04934 9.410823,0.138823 0.195915,0.05926 0.570762,0.425444 0.7215,0.70482 0.132836,0.246196 0.129884,0.941579 -0.0052,1.214499 -0.125649,0.253939 -0.456408,0.58574 -0.715833,0.718089 l -0.201795,0.102948 -9.195117,-0.0011 c -8.889473,-0.0011 -9.201959,-0.0042 -9.400974,-0.09457 z"
   id="path872" /><path
   style="fill:#2c6baf;stroke:#3880ff;stroke-width:0.0497599;fill-opacity:1;stroke-opacity:1"
   d="M 1.9795291,41.372788 C 1.132101,41.167055 0.55063572,40.635557 0.16299923,39.712358 L 0.04975986,39.442665 0.05049537,28.192949 C 0.05113234,18.450139 0.061069,16.901506 0.12467677,16.631723 0.33989561,15.718904 1.0479904,14.982291 1.9252747,14.758608 L 2.164554,14.697598 2.2005512,9.3267538 C 2.2203496,6.3727894 2.2569152,3.7697375 2.2818083,3.5421944 2.3828882,2.6182383 2.9756572,1.9178936 3.958593,1.5611071 L 4.2838752,1.443036 20.888966,1.4467589 c 9.1328,0.00205 16.919646,0.019136 17.304103,0.037974 0.655171,0.032103 0.719849,0.044509 1.03122,0.1977961 0.404917,0.19934 0.8369,0.5841889 1.084028,0.9657476 0.354441,0.5472492 0.339004,0.2854098 0.381721,6.4749357 l 0.03841,5.5653817 0.353018,0.111884 c 0.666727,0.211311 1.199365,0.673132 1.516664,1.315016 0.158281,0.320196 0.164327,0.355623 0.200726,1.176058 0.04795,1.080828 0.04938,21.064651 0.0016,21.796986 -0.03203,0.49054 -0.05558,0.590999 -0.219376,0.935908 -0.255615,0.538253 -0.637919,0.912687 -1.214906,1.189896 l -0.438644,0.210744 -19.331707,0.0084 c -16.3433262,0.0071 -19.375736,-0.0023 -19.6162939,-0.0607 z M 28.073259,19.601886 c 3.621467,-1.507161 6.836395,-2.843875 7.144284,-2.970477 l 0.559798,-0.230184 V 11.385244 6.3692624 H 21.446501 7.1156604 v 5.0133156 5.013315 l 7.1032206,2.969034 c 3.906771,1.632968 7.140722,2.970883 7.186556,2.973142 0.04584,0.0023 3.046355,-1.229022 6.667822,-2.736183 z"
   id="path874" /></svg>
